<svg width="72" height="72" viewBox="0 0 72 72" fill="none" xmlns="http://www.w3.org/2000/svg">
<path d="M27.2381 32.3992C28.862 28.4139 31.6577 25.7886 35.0026 25.2649C38.3476 24.7412 41.812 26.3864 44.5762 29.6846C44.7724 29.9187 44.7905 30.1788 44.6873 30.4164C44.5784 30.6672 44.3295 30.8899 43.9709 30.946L28.2 33.4153C27.8414 33.4714 27.5363 33.3355 27.356 33.13C27.1851 32.9353 27.1228 32.6821 27.2381 32.3992Z" fill="#FFF5EA" stroke="#FFF5EA" stroke-width="2" stroke-linecap="round"/>
<path fill-rule="evenodd" clip-rule="evenodd" d="M35.6813 24.1464C31.4676 24.8061 28.1623 28.328 26.795 33.1767C26.7107 33.4757 26.3999 33.6498 26.1009 33.5654C25.8019 33.4811 25.6279 33.1704 25.7122 32.8714C27.1606 27.7352 30.7352 23.7821 35.5073 23.0349C40.2794 22.2877 44.8912 24.9591 47.8401 29.4068C48.0118 29.6657 47.9411 30.0148 47.6822 30.1865C47.4232 30.3581 47.0742 30.2874 46.9025 30.0285C44.1186 25.8298 39.8951 23.4866 35.6813 24.1464Z" fill="#635D57"/>
<path d="M34.0243 28.1067C34.0963 28.5671 33.7816 28.9988 33.3212 29.0709C32.8608 29.1429 32.4292 28.8282 32.3571 28.3678C32.285 27.9074 32.5998 27.4757 33.0602 27.4037C33.5205 27.3316 33.9522 27.6464 34.0243 28.1067Z" fill="#635D57"/>
<path d="M41.162 26.4197C41.234 26.8801 40.9193 27.3118 40.4589 27.3838C39.9985 27.4559 39.5669 27.1411 39.4948 26.6808C39.4227 26.2204 39.7375 25.7887 40.1979 25.7167C40.6582 25.6446 41.0899 25.9593 41.162 26.4197Z" fill="#635D57"/>
<path fill-rule="evenodd" clip-rule="evenodd" d="M36.5379 27.5078L36.5375 27.5072L36.5369 27.5062L36.5363 27.5052C36.5371 27.5065 36.5393 27.5099 36.5427 27.515C36.5497 27.5253 36.5613 27.542 36.5769 27.5619C36.61 27.6041 36.6521 27.6499 36.6971 27.6848C36.7435 27.7207 36.7706 27.728 36.7769 27.729C36.7776 27.7291 36.7779 27.7291 36.7782 27.7291C36.7785 27.7291 36.7787 27.7291 36.7794 27.7289C36.7809 27.7286 36.7919 27.7261 36.8132 27.713C36.8162 27.7095 36.8375 27.6833 36.8495 27.5972C36.8559 27.551 36.8566 27.5055 36.8552 27.4707C36.8546 27.4539 36.8536 27.4413 36.8529 27.4343L36.8523 27.4289C36.8149 27.1538 37.0062 26.8996 37.2815 26.8597C37.5582 26.8197 37.8149 27.0116 37.855 27.2883L37.3539 27.3608C37.855 27.2883 37.855 27.2881 37.855 27.2883L37.8552 27.2897L37.8554 27.2913L37.856 27.2953L37.8573 27.3056C37.8583 27.3136 37.8594 27.3239 37.8606 27.3361C37.863 27.3604 37.8655 27.393 37.867 27.4319C37.8699 27.5085 37.8691 27.6161 37.8523 27.7367C37.8214 27.9589 37.7194 28.3369 37.3591 28.5658C37.12 28.7177 36.8655 28.7673 36.6218 28.7296C36.3914 28.6938 36.207 28.586 36.0766 28.4848C35.9448 28.3826 35.8448 28.2692 35.78 28.1865C35.7467 28.144 35.7204 28.1067 35.7017 28.0788C35.6923 28.0648 35.6847 28.0529 35.6789 28.0438L35.6717 28.032L35.669 28.0277L35.668 28.0259L35.6675 28.0252C35.6674 28.025 35.6671 28.0245 36.1027 27.7664L35.6671 28.0245C35.5246 27.7839 35.6041 27.4734 35.8447 27.3309C36.0841 27.189 36.3929 27.2672 36.5363 27.5052" fill="#635D57"/>
<path d="M18.1641 38.6075C18.1241 38.468 18.104 38.3983 18.0915 38.3183C18.0172 37.9017 17.9401 37.4674 17.8568 37.0523C17.8132 36.8314 17.7797 36.618 17.7197 36.4088C17.5667 36.0137 17.1645 35.8307 16.7653 35.957C16.4877 36.046 16.1799 36.3492 16.2757 36.8444C16.5551 38.2218 16.8181 39.6108 17.0975 40.9881C17.124 41.1571 17.1593 41.3246 17.2213 41.488C17.3476 41.8873 17.7881 42.0825 18.1771 41.9487C18.5647 41.806 18.7411 41.4778 18.6606 41.0805C18.6169 40.8596 18.5643 40.6401 18.5034 40.3672C18.7068 40.4447 18.8719 40.5099 19.0103 40.5793C19.3021 40.6976 19.5892 40.844 19.8735 40.9725C20.0975 41.065 20.3104 41.0863 20.5463 41.0221C20.8089 40.9536 21.0347 40.7088 21.0655 40.4398C21.0934 40.153 20.9833 39.9151 20.7243 39.7735C20.6523 39.721 20.5667 39.698 20.4872 39.6558C20.2029 39.5272 19.9364 39.3958 19.6329 39.2612C19.7121 39.185 19.766 39.1219 19.8212 39.0677C19.9693 38.9079 20.1276 38.7556 20.2654 38.5882C20.5443 38.2166 20.4144 37.7359 19.9944 37.5557C19.7882 37.4605 19.5665 37.4405 19.3656 37.554C19.2078 37.6516 19.0781 37.7539 18.9511 37.8739C18.6958 38.1052 18.4508 38.344 18.1641 38.6075Z" fill="#635D57"/>
<path d="M23.9751 39.5925C24.1263 39.5688 24.2241 39.5535 24.313 39.5396C24.8685 39.4799 25.3091 39.2105 25.6522 38.7833C26.3894 37.848 25.946 36.5874 24.7752 36.3244C24.4651 36.2636 24.1558 36.2665 23.8343 36.3077C22.8993 36.445 22.1179 37.2141 21.9904 38.1451C21.9138 38.7036 22.0001 39.2549 22.2109 39.7867C22.3397 40.0854 22.519 40.3579 22.7714 40.5735C23.4716 41.1471 24.263 41.3147 25.1355 41.0688C25.3016 41.0245 25.4664 40.9714 25.6195 40.9019C25.8901 40.7684 26.0654 40.5497 26.0611 40.2315C26.044 39.7149 25.5418 39.4747 25.1042 39.5888C24.938 39.633 24.7835 39.6936 24.616 39.729C24.4053 39.7802 24.2089 39.7472 23.9751 39.5925ZM23.5198 38.1971C23.6672 37.8005 24.0287 37.6073 24.3828 37.7158C24.5067 37.7511 24.5398 37.8461 24.4545 37.9414C24.3842 38.0162 24.2873 38.0952 24.1806 38.1119C23.9775 38.1528 23.7613 38.1684 23.5198 38.1971Z" fill="#635D57"/>
<path d="M28.5832 37.5865C28.5017 37.2987 28.4838 37.01 28.4865 36.7362C28.4934 36.4892 28.5928 36.3097 28.8479 36.2515C28.9874 36.2115 29.1282 36.1803 29.2691 36.1491C29.3566 36.1263 29.4483 36.1302 29.5359 36.1074C29.8518 36.0306 30.0795 35.7398 30.0842 35.4203C30.0841 35.1288 29.8678 34.8529 29.5357 34.7683C29.4501 34.7452 29.3584 34.7414 29.2756 34.7361C28.9341 34.7076 28.6237 34.82 28.3045 34.9337C27.5368 35.2088 27.0832 35.7444 26.9923 36.5603C26.9435 37.0052 26.9837 37.4361 27.0786 37.8677C27.1916 38.4148 27.3223 38.9591 27.4517 39.4945C27.5043 39.714 27.5555 39.9246 27.6409 40.1208C27.8177 40.4939 28.2424 40.6461 28.6272 40.4856C29.0059 40.3443 29.1603 39.9922 29.0312 39.5752C28.9697 39.357 28.8891 39.1328 28.8809 38.9064C29.2613 38.8923 29.5306 38.75 29.6788 38.417C29.7924 38.1533 29.7343 37.8982 29.5305 37.7024C29.252 37.4363 28.9338 37.4405 28.5832 37.5865Z" fill="#635D57"/>
<path d="M32.99 37.8257C32.9622 37.6479 32.9432 37.4687 32.9079 37.3011C32.8786 37.1144 32.8583 36.9263 32.8127 36.7512C32.7144 36.3567 32.3792 36.1359 31.9955 36.1868C31.6207 36.2364 31.3559 36.5238 31.3344 36.9098C31.3291 36.9926 31.3431 37.0815 31.357 37.1705C31.4461 37.7395 31.5338 38.2997 31.6229 38.8688C31.6424 38.9932 31.6797 39.1149 31.7155 39.2278C31.8629 39.5873 32.2842 39.7764 32.6554 39.6454C33.0178 39.5158 33.1997 39.2231 33.1473 38.8305C33.1033 38.4912 33.0415 38.1547 32.99 37.8257ZM32.0188 35.9281C32.4353 35.8538 32.7081 35.5014 32.6468 35.1101C32.5808 34.747 32.1839 34.4812 31.7941 34.5513C31.3762 34.6167 31.1048 34.9781 31.1647 35.3604C31.2348 35.7503 31.6009 35.9936 32.0188 35.9281Z" fill="#635D57"/>
<path d="M30.6198 44.7846C30.1587 44.5744 30.6363 44.3083 30.9393 44.4977C30.979 44.5188 31.0099 44.5413 31.0482 44.5535C31.3914 44.7093 31.8085 44.5803 32.0068 44.2759C32.2037 43.9627 32.1527 43.5789 31.8503 43.3348C31.7036 43.212 31.524 43.1126 31.3426 43.059C30.4872 42.7739 29.4516 43.2002 29.022 44.0054C28.7204 44.5809 28.8118 45.2225 29.2618 45.6531C29.4464 45.8428 29.6595 45.9825 29.9102 46.0708C30.1445 46.1708 30.3952 46.2591 30.6294 46.359C30.8418 46.4351 31.0241 46.5523 31.1689 46.7209C31.324 46.8971 31.2849 47.1127 31.0212 46.9992C30.8219 46.9484 30.626 46.8606 30.4328 46.7906C30.2603 46.7357 30.0863 46.6718 29.9193 46.6524C29.5792 46.6328 29.2466 46.8944 29.162 47.2265C29.0759 47.5497 29.2327 47.8531 29.576 48.0089C30.1221 48.2968 30.7118 48.5142 31.4095 48.4323C32.4465 48.3064 33.0623 47.2353 32.6471 46.2709C32.3793 45.666 31.8857 45.306 31.2993 45.0517C31.0739 44.9503 30.8527 44.8757 30.6198 44.7846Z" fill="#635D57"/>
<path d="M35.9415 44.6528C36.1549 44.6194 36.3505 44.5888 36.5536 44.5479C36.7314 44.52 36.899 44.4847 37.0624 44.4227C37.3966 44.2883 37.5818 43.9587 37.52 43.6222C37.4596 43.2946 37.132 43.0635 36.8077 43.087C36.7085 43.0934 36.6004 43.1012 36.5026 43.1165C36.2269 43.1597 35.9602 43.2014 35.6579 43.2488C35.6245 43.0354 35.6013 42.8295 35.5604 42.6264C35.5256 42.4041 35.4997 42.1804 35.4382 41.9623C35.3339 41.5869 35.0001 41.375 34.6178 41.4348C34.2354 41.4947 33.951 41.8307 33.9842 42.2173C34.0123 42.5135 34.0685 42.8144 34.1145 43.1078C34.134 43.2323 34.1549 43.3657 34.173 43.4813C33.5901 43.7729 33.4012 44.0212 33.4966 44.3979C33.5264 44.5299 33.6109 44.6624 33.6987 44.758C33.8861 44.9655 34.1645 44.9401 34.4382 44.9428C34.461 45.0304 34.4736 45.1104 34.4861 45.1904C34.5965 45.5466 34.6803 45.907 34.816 46.2501C35.0963 46.935 35.6208 47.3175 36.3375 47.4148C37.1028 47.5318 37.7354 47.1504 38.0161 46.4414C38.1833 45.9962 38.1951 45.548 38.1343 45.102C38.1321 45.0295 38.1018 44.9522 38.0654 44.8942C37.9305 44.6147 37.6434 44.4683 37.3233 44.5184C36.984 44.5625 36.724 44.8218 36.6749 45.1483C36.6561 45.2606 36.6742 45.3762 36.6642 45.4871C36.7844 45.9055 36.4341 46.1699 36.2241 45.7017C36.0926 45.3853 35.9849 45.0468 35.9415 44.6528Z" fill="#635D57"/>
<path d="M41.567 46.514C42.1641 46.4296 42.6581 46.1519 43.0181 45.6583C43.4953 44.9823 43.6448 44.0753 43.3066 43.2537C42.8163 42.1006 41.5444 41.8899 40.5473 42.3284C39.5501 42.7669 38.9324 43.8839 39.1879 44.9917C39.4508 46.0893 40.5781 46.7144 41.567 46.514ZM41.7263 44.9131C41.3866 45.3034 40.7429 45.1491 40.6608 44.6245C40.5809 44.1724 40.8328 43.6866 41.3538 43.523C41.5438 43.4568 41.7898 43.5732 41.8826 43.759C42.0553 44.1055 41.9924 44.6346 41.7263 44.9131Z" fill="#635D57"/>
<path d="M45.7948 41.2153C45.7434 41.1778 45.6831 41.1417 45.6139 41.1069C45.1683 40.8214 44.5443 41.0831 44.4622 41.6061C44.44 41.7553 44.4856 41.9304 44.5182 42.0801C44.6518 42.6422 44.8045 43.2105 44.9469 43.7712C45.0861 44.3688 45.2149 44.959 45.3526 45.5478C45.4178 45.8473 45.5771 46.0501 45.8811 46.1301C46.4419 46.2791 46.9483 45.7899 46.8217 45.2722C46.7226 44.8141 46.6666 44.34 46.517 43.908C46.3646 43.4581 46.3011 42.9944 46.4063 42.6773C46.4993 42.3985 46.9563 42.1174 46.9932 42.5854C47.0024 42.7024 46.991 42.8044 47.0002 42.9213C47.0203 43.2826 47.2722 43.5529 47.6165 43.5992C48.0628 43.6568 48.4834 43.3177 48.5041 42.8681C48.5076 42.658 48.4934 42.4507 48.46 42.2373C48.2665 41.0014 46.8041 40.4469 45.7948 41.2153Z" fill="#635D57"/>
<path d="M53.073 42.9908C53.1331 43.2 53.1417 43.3718 53.0984 43.5607C53.0579 43.7675 52.9277 43.9245 52.6993 43.9785C52.3997 44.0436 52.0927 44.119 51.7857 44.1944C51.4431 44.2754 51.1989 44.5778 51.1957 44.9062C51.2041 45.2511 51.4649 45.52 51.8283 45.5724C51.9214 45.5852 52.0234 45.5965 52.1198 45.5723C52.4624 45.4913 52.805 45.4104 53.1551 45.3191C54.124 45.049 54.7092 44.0737 54.6219 43.1673C54.5966 42.8889 54.5595 42.5941 54.4972 42.3123C54.4126 41.8883 54.3191 41.4657 54.2181 41.0534C54.1599 40.7983 54.1004 40.5343 54.0141 40.2745C53.9293 40.0236 53.7311 39.8634 53.4668 39.8045C53.0533 39.7235 52.6455 39.9696 52.5495 40.4036C52.5081 40.5468 52.4962 40.7035 52.474 40.8527C52.4183 41.2532 52.2578 41.6244 52.0356 41.9507C51.8795 42.1756 51.712 42.2109 51.4735 42.0843C51.3337 42.006 51.2431 41.8926 51.1866 41.7648C51.0929 41.5153 51.045 41.2678 51.0491 41.0029C51.0679 40.5992 50.7941 40.305 50.3978 40.2759C49.9557 40.2449 49.5782 40.5682 49.5486 41.0192C49.5301 41.5414 49.6423 42.0249 49.8597 42.4827C50.3291 43.5024 51.9201 44.064 52.9521 43.0917C52.9835 43.0595 53.0163 43.0361 53.073 42.9908Z" fill="#635D57"/>
<path d="M37.2485 37.136C36.8907 35.5182 37.912 33.9167 39.5298 33.5589L42.435 32.9163C44.0528 32.5585 45.6543 33.5799 46.0121 35.1976L46.1009 35.5989C46.4587 37.2167 45.4373 38.8182 43.8196 39.176L40.9143 39.8186C39.2966 40.1765 37.6951 39.1551 37.3373 37.5373L37.2485 37.136Z" fill="#FFF5EA"/>
<path d="M40.8967 35.1855C40.5448 35.2633 40.322 35.6088 40.399 35.9572C40.4612 36.2385 40.7204 36.8813 41.9672 37.3133C41.9895 37.3209 42.0135 37.3222 42.0365 37.3171C42.0595 37.3121 42.0807 37.3007 42.0977 37.2844C43.046 36.3669 43.0099 35.6747 42.9477 35.3935C42.8706 35.0451 42.5228 34.8258 42.171 34.9036C41.7883 34.9883 41.2793 35.1009 40.8967 35.1855Z" fill="#F7DAD9"/>
<path fill-rule="evenodd" clip-rule="evenodd" d="M42.0497 34.3544C42.6997 34.2107 43.3518 34.6151 43.4971 35.272C43.5458 35.4922 43.5745 35.8374 43.4384 36.2694C43.3034 36.6979 43.017 37.1779 42.489 37.6887L42.4872 37.6905C42.3957 37.7782 42.2819 37.839 42.1582 37.8664C42.0345 37.8938 41.9056 37.8866 41.7857 37.8456L41.7833 37.8448C41.0891 37.6043 40.627 37.2898 40.3239 36.9583C40.0183 36.624 39.8987 36.2989 39.85 36.0787C39.7047 35.4217 40.1255 34.78 40.7754 34.6363L42.0497 34.3544ZM42.3987 35.515C42.3899 35.4751 42.3465 35.441 42.2927 35.4529L41.0184 35.7347C40.9646 35.7466 40.9397 35.7959 40.9485 35.8358C40.962 35.8968 41.003 36.0338 41.1543 36.1992C41.2824 36.3394 41.5058 36.5176 41.8967 36.6839C42.1809 36.3683 42.3083 36.1124 42.3654 35.9313C42.4327 35.7176 42.4122 35.576 42.3987 35.515Z" fill="#F7DAD9"/>
<path fill-rule="evenodd" clip-rule="evenodd" d="M37.1456 35.4789C36.8772 34.2656 37.6433 33.0644 38.8566 32.7961L43.7569 31.7122C44.9702 31.4438 46.1713 32.2099 46.4397 33.4232L47.0056 35.9819C47.274 37.1952 46.508 38.3963 45.2947 38.6647L40.3944 39.7486C39.181 40.0169 37.9799 39.2509 37.7115 38.0376L37.1456 35.4789ZM39.0995 33.8945C38.4929 34.0287 38.1099 34.6293 38.244 35.2359L38.81 37.7946C38.9442 38.4013 39.5447 38.7843 40.1514 38.6501L45.0517 37.5662C45.6584 37.432 46.0414 36.8315 45.9072 36.2248L45.3412 33.6661C45.2071 33.0595 44.6065 32.6765 43.9998 32.8106L39.0995 33.8945Z" fill="#635D57"/>
<path d="M42.7276 34.5632C43.0791 34.4976 43.4212 34.7195 43.4982 35.0678C43.514 35.1393 43.5282 35.2367 43.5256 35.3571L46.0242 32.6704L45.2004 31.9043L42.7276 34.5632Z" fill="#635D57"/>
<path d="M41.0305 35.9871L37.5879 34.5319L38.0259 33.4957L41.3098 34.8838C41.0064 34.9992 40.8249 35.32 40.8964 35.6433C40.9156 35.7298 40.9529 35.8497 41.0305 35.9871Z" fill="#635D57"/>
<path fill-rule="evenodd" clip-rule="evenodd" d="M40.3474 35.7647C40.2005 35.1005 40.6259 34.4516 41.2832 34.3062C41.5496 34.2473 41.7947 34.2984 41.9788 34.3664C42.117 34.2271 42.3177 34.0774 42.5841 34.0184C43.2413 33.8731 43.9007 34.282 44.0477 34.9463C44.097 35.1694 44.1262 35.5196 43.9879 35.9584C43.8508 36.3936 43.5597 36.882 43.0218 37.4024L43.02 37.4042C42.9282 37.4922 42.8139 37.5533 42.6897 37.5807C42.5655 37.6082 42.4362 37.601 42.3158 37.5599L42.3134 37.5591C41.6062 37.3141 41.1363 36.994 40.8284 36.6572C40.518 36.3177 40.3968 35.9878 40.3474 35.7647ZM42.6541 35.3332C42.6535 35.3346 42.6529 35.3359 42.6523 35.3372C42.6523 35.3372 42.6531 35.3356 42.6539 35.334C42.6564 35.329 42.6614 35.3193 42.6686 35.3066C42.6836 35.2801 42.7055 35.2449 42.7328 35.2099C42.7841 35.144 42.8187 35.123 42.8271 35.1179C42.8297 35.1163 42.8298 35.1163 42.827 35.1169C42.8881 35.1034 42.9388 35.1421 42.9492 35.1892C42.9634 35.2532 42.9844 35.3998 42.9149 35.6203C42.8557 35.8082 42.7234 36.073 42.4284 36.3991C42.0233 36.2278 41.7917 36.0436 41.6587 35.8982C41.5028 35.7275 41.46 35.5857 41.4459 35.5217C41.4354 35.4746 41.465 35.4182 41.5261 35.4046C41.5234 35.4052 41.5235 35.4053 41.5265 35.4056C41.5363 35.4067 41.5765 35.4111 41.6508 35.4492C41.6903 35.4695 41.7251 35.4921 41.7498 35.5098C41.7617 35.5183 41.7703 35.525 41.7747 35.5285C41.7761 35.5295 41.7775 35.5307 41.7775 35.5307M41.7775 35.5307C41.9115 35.6444 42.0911 35.689 42.2629 35.651C42.4347 35.613 42.5787 35.4969 42.6523 35.3372L42.652 35.3377L42.6526 35.3365L42.6533 35.335L42.6539 35.334L42.6541 35.3332M41.7775 35.5307L41.7779 35.5311L41.7769 35.5302L41.7756 35.5291L41.7747 35.5285" fill="#635D57"/>
<path d="M39.057 35.3499C39.2492 36.5776 38.5342 37.7092 37.46 37.8774C36.3858 38.0456 35.3591 37.1867 35.1669 35.959C34.9747 34.7313 35.6897 33.5997 36.7639 33.4315C37.8381 33.2634 38.8648 34.1222 39.057 35.3499Z" fill="#FFF5EA"/>
<path fill-rule="evenodd" clip-rule="evenodd" d="M37.286 36.7659C37.6116 36.7149 38.0642 36.2818 37.9455 35.5239C37.8269 34.7661 37.2635 34.492 36.9379 34.543C36.6123 34.594 36.1597 35.0271 36.2784 35.785C36.397 36.5429 36.9604 36.8169 37.286 36.7659ZM37.46 37.8774C38.5342 37.7092 39.2492 36.5776 39.057 35.3499C38.8648 34.1222 37.8381 33.2634 36.7639 33.4315C35.6897 33.5997 34.9747 34.7313 35.1669 35.959C35.3591 37.1867 36.3858 38.0456 37.46 37.8774Z" fill="#635D57"/>
<path d="M48.8866 32.6722C49.0788 33.8999 48.3638 35.0315 47.2896 35.1996C46.2154 35.3678 45.1887 34.509 44.9965 33.2813C44.8043 32.0536 45.5193 30.922 46.5935 30.7538C47.6677 30.5856 48.6944 31.4445 48.8866 32.6722Z" fill="#FFF5EA"/>
<path fill-rule="evenodd" clip-rule="evenodd" d="M47.1156 34.0882C47.4412 34.0372 47.8938 33.6041 47.7751 32.8462C47.6565 32.0883 47.0931 31.8143 46.7675 31.8653C46.4419 31.9163 45.9893 32.3494 46.1079 33.1072C46.2266 33.8651 46.7899 34.1392 47.1156 34.0882ZM47.2896 35.1996C48.3638 35.0315 49.0788 33.8999 48.8866 32.6722C48.6944 31.4445 47.6677 30.5856 46.5935 30.7538C45.5193 30.922 44.8043 32.0536 44.9965 33.2813C45.1887 34.509 46.2154 35.3678 47.2896 35.1996Z" fill="#635D57"/>
</svg>
