<svg width="24" height="24" viewBox="0 0 24 24" fill="none" xmlns="http://www.w3.org/2000/svg">
<path d="M22 4.85018V16.7402C22 17.7102 21.21 18.6002 20.24 18.7202L19.93 18.7602C18.29 18.9802 15.98 19.6602 14.12 20.4402C13.47 20.7102 12.75 20.2202 12.75 19.5102V5.60018C12.75 5.23018 12.96 4.89018 13.29 4.71018C15.12 3.72018 17.89 2.84018 19.77 2.68018H19.83C21.03 2.68018 22 3.65018 22 4.85018Z" fill="#635D57"/>
<path d="M10.71 4.71018C8.88001 3.72018 6.11001 2.84018 4.23001 2.68018H4.16001C2.96001 2.68018 1.99001 3.65018 1.99001 4.85018V16.7402C1.99001 17.7102 2.78001 18.6002 3.75001 18.7202L4.06001 18.7602C5.70001 18.9802 8.01001 19.6602 9.87001 20.4402C10.52 20.7102 11.24 20.2202 11.24 19.5102V5.60018C11.24 5.22018 11.04 4.89018 10.71 4.71018ZM5.00001 7.74018H7.25001C7.66001 7.74018 8.00001 8.08018 8.00001 8.49018C8.00001 8.91018 7.66001 9.24018 7.25001 9.24018H5.00001C4.59001 9.24018 4.25001 8.91018 4.25001 8.49018C4.25001 8.08018 4.59001 7.74018 5.00001 7.74018ZM8.00001 12.2402H5.00001C4.59001 12.2402 4.25001 11.9102 4.25001 11.4902C4.25001 11.0802 4.59001 10.7402 5.00001 10.7402H8.00001C8.41001 10.7402 8.75001 11.0802 8.75001 11.4902C8.75001 11.9102 8.41001 12.2402 8.00001 12.2402Z" fill="#635D57"/>
</svg>
